PathFileType	4	(X/Y/Z)	Patient4_TMGait_0pt5_01_left_18.trc.trc
DataRate	CameraRate	NumFrames	NumMarkers	Units	OrigDataRate	OrigDataStartFrame	OrigNumFrames
71.065989847716	71.065989847716	7	33	mm	71.065989847716	89	       141
Frame#	Time	L.ASIS			Sacral			L.Shoulder			Chest			R.Shoulder			Neck			R.ASIS			R.Thigh.Superior			R.Thigh.Lateral			R.Thigh.Inferior			R.Patella			L.Thigh.Superior			L.Thigh.Lateral			L.Thigh.Inferior			L.Patella			L.Shank.Superior			L.Shank.Lateral			L.Shank.Inferior			R.Shank.Superior			R.Shank.Lateral			R.Shank.Inferior			R.Heel			R.Midfoot.Superior			R.Midfoot.Lateral			R.Toe			L.Heel			L.Midfoot.Lateral			L.Midfoot.Superior			L.Toe			L.Elbow			L.Wrist			R.Elbow			R.Wrist			
		X1	Y1	Z1	X2	Y2	Z2	X3	Y3	Z3	X4	Y4	Z4	X5	Y5	Z5	X6	Y6	Z6	X7	Y7	Z7	X8	Y8	Z8	X9	Y9	Z9	X10	Y10	Z10	X11	Y11	Z11	X12	Y12	Z12	X13	Y13	Z13	X14	Y14	Z14	X15	Y15	Z15	X16	Y16	Z16	X17	Y17	Z17	X18	Y18	Z18	X19	Y19	Z19	X20	Y20	Z20	X21	Y21	Z21	X22	Y22	Z22	X23	Y23	Z23	X24	Y24	Z24	X25	Y25	Z25	X26	Y26	Z26	X27	Y27	Z27	X28	Y28	Z28	X29	Y29	Z29	X30	Y30	Z30	X31	Y31	Z31	X32	Y32	Z32	X33	Y33	Z33	

89	25.258285714286	877.751242920237	958.185155221252	346.299604889136	663.859541280376	998.349870291110	503.248241644719	817.954393346762	1431.549728441252	318.474109446798	922.919028061032	1366.811876400321	480.790883400056	834.443205591669	1436.058837631406	654.778878621447	815.716833070234	1494.184651365355	469.432495158096	893.618501242545	942.745150446874	620.823544715940	950.891513882345	748.049816411513	588.797498829498	878.198333735321	633.412877424750	646.398834883734	959.178631362424	587.667805422817	565.421652083248	966.529688796450	498.113642459740	569.605624528310	913.829543241324	737.836381188231	365.692488748831	820.414702790412	627.889621605448	300.810895467100	904.351402010153	539.806103298665	354.974032723997	893.730110278242	454.354121979181	351.353880166625	825.059702869561	397.504901702205	347.241756049959	684.519824516893	353.525019118157	299.386238697414	671.593595937750	225.980589725526	358.361372135306	942.742200389246	408.302476657636	576.243540736513	876.783148989502	300.403001086996	634.603884059345	923.964037468609	208.579237851100	571.892479211259	796.759535946372	42.650912113994	537.406908931874	966.634586149355	98.154384979528	576.899422413120	878.491914982528	36.305069948953	613.950248072406	1086.489350908093	46.496745898721	607.676097874251	481.135142297922	158.582185288938	396.885539386070	540.492694828435	106.888726170101	323.162093433324	643.594449040274	122.765092466278	343.192755719015	726.459808849307	31.441026225321	331.156146137191	810.892723893508	1075.539163503392	201.890800308767	969.803046229869	868.635207275128	182.409207622911	772.100434729422	1092.930991423721	767.287571174488	857.236912716278	845.735115962378	763.925589533221	
90	25.272357142857	876.759027431075	958.755602454733	348.771928796257	664.050607758167	998.884449414704	507.423131816854	816.324345486475	1432.178029198589	321.931576865937	923.177735215823	1367.236226664415	482.974293469561	836.746707331868	1436.304440720747	658.053338186272	815.734176253570	1494.655896959789	473.031332640425	894.726283294583	942.998015084958	623.100047240907	949.730722233266	747.104853047876	591.831981386750	875.529246257918	633.330824777291	648.972783074029	956.002614403470	586.828523783456	568.041722384709	962.159834211100	497.386759751054	571.935648405596	918.950888397296	740.964626746506	367.705427779964	830.334547326233	628.671830798863	301.771111432569	917.216303810698	542.605661787355	355.725812155120	908.096562067959	455.939022828688	351.365609082671	837.677610448832	399.068310791539	347.287163209217	695.551262319120	360.147061325720	299.369087528101	678.369547482501	232.937680583991	357.878074443389	937.911406962969	407.706952755283	578.193933129878	871.280009657861	299.983212604915	635.983531783038	917.901401799552	208.144390206667	572.864112953621	789.776303562629	42.680450521447	537.575542656144	959.764127413269	98.018283991256	577.237568498149	871.481243891401	36.282844605226	614.235627939994	1079.570051631349	46.010422591210	607.917915007392	485.470400466003	175.336920428732	395.970186085763	541.939273865488	119.811216831169	322.382803794009	646.082563598411	129.415379577180	342.395530935895	722.568280302516	30.942189007852	330.567266200981	806.527978235695	1075.615415650701	207.267752487482	953.059763947881	859.726606060261	187.926690335064	783.267584455144	1091.723708468597	772.097553453181	882.531961869146	849.885757429306	767.168869852537	
91	25.286428571429	875.496870079596	959.256173026723	351.026193969107	663.984225622996	999.422447071059	511.435025328107	814.590479117902	1432.768795665453	325.269833564586	923.324449218573	1367.557611556387	484.984944161832	839.030694224838	1436.469589433837	661.190309765035	815.758580283418	1495.077634598129	476.487066284230	895.586046139810	943.210916765296	625.179057557052	948.307437721935	746.225723111448	594.604392040531	872.666020709478	633.266365199635	651.380912225728	952.592548548717	586.016270338212	570.484936742820	957.543075481227	496.717780919729	574.115803231593	923.714240798556	744.434974994724	369.775949997674	840.027598241152	629.961144795129	302.658771476926	929.639699580608	546.085053998646	356.581854008683	922.215008776612	458.290425138877	351.557749023341	850.373485129401	401.222135632165	347.431330021503	706.940922046206	366.772883121953	299.467687581692	686.001849178405	239.945649063866	357.647350358747	932.888703480948	407.166359855139	580.030680896608	865.626991295943	299.609944588492	637.292263324109	911.767228585199	207.762579771619	573.815290825585	782.753537780975	42.724451816831	537.762847329332	952.875898540664	97.864405860701	577.583712954074	864.443466445744	36.264150366944	614.536371818471	1072.617399693590	45.498948069814	608.160425577091	491.252557163889	191.014859621399	395.485927263128	545.026333374540	132.435423963189	321.817214183880	649.929266646300	136.397217216091	341.818127868089	720.596471590685	30.902727116314	329.719879364902	801.795534145067	1075.666773862250	212.607678273235	935.609718876309	851.690440881194	193.476978258219	794.883551562735	1090.699072657004	776.763317756748	908.053902812098	855.112116534696	770.102124547492	
92	25.300500000000	873.990229449272	959.756730620722	353.068468289272	663.686953071820	1000.013988201902	515.266680717255	812.792749443169	1433.385620283057	328.485144814126	923.361683658020	1367.841653677406	486.837628740642	841.263112147736	1436.612259503481	664.178752883336	815.807936696576	1495.503694182350	479.790151545618	896.199730617564	943.432405346866	627.055657820439	946.606903699975	745.438390355559	597.071137608850	869.591412149337	633.247810644069	653.594123752102	948.917386392006	585.251424510941	572.712618506548	952.659567782420	496.128506987602	576.103833337409	928.020056225942	748.257445419471	371.884329152630	849.259677651371	631.807048424832	303.487796569087	941.406866498799	550.248920860160	357.455481525176	935.867188403078	461.427008543902	351.806051267566	862.959616739788	403.964499234561	347.601079025845	718.472588704798	373.179751437234	299.700481632001	694.513163554168	246.686947916412	357.645277527562	927.654249197324	406.710317190491	581.721323882943	859.802012695960	299.313587301273	638.507348291441	905.545956271396	207.458844623405	574.729036656717	775.696485396517	42.785586313809	537.967070809688	945.970754665480	97.711617057167	577.930956336060	857.384918864298	36.254079785846	614.837922788766	1065.632837826022	45.000172195017	608.395638950453	498.484794785926	204.779480303071	395.504139735380	549.924228699048	144.036421015491	321.516830183890	655.354397669690	143.309334493283	341.439840086031	721.117964582743	31.401991503597	328.598172300250	796.597834158725	1075.780836455778	217.880280306315	917.580488803085	844.685369226835	199.042283825036	806.938244933644	1089.918174839006	781.203978268807	933.650595417857	861.457343456210	772.625250932281	
93	25.314571428571	872.275281320618	960.324353866806	354.916785083616	663.195370512142	1000.703102276630	518.905411813610	810.970859072729	1434.083904437683	331.581555531186	923.300785407780	1368.148025718883	488.551873372229	843.426797180596	1436.784387586551	667.014740216509	815.895159520373	1495.980077749984	482.942000982579	896.572114745674	943.695292291108	628.731857058629	944.606471930414	744.753070546378	599.206430434597	866.276794868368	633.297980072045	655.602444390544	944.933038420894	584.545756370813	574.705680066993	947.477227758549	495.634895376074	577.885953563291	931.797569274122	752.415333164088	373.983802182749	857.824395747070	634.213191175188	304.258178469683	952.343583061679	555.054288871048	358.239236635667	948.860851583659	465.326479646540	351.979660799948	875.280980874007	407.249393550159	347.717585287723	729.971085912837	379.106721572819	300.060715973532	703.954489020397	252.815264246044	357.825099581170	922.178184463158	406.361747177765	583.255621134843	853.772804831956	299.114805957170	639.620444362991	899.216091760265	207.252480039436	575.599670786454	768.610123881615	42.864920305203	538.185201271245	939.050664781871	97.576132867675	578.275458762029	850.310956482355	36.254079917204	615.126052337123	1058.619161575470	44.543709142083	608.617076108238	507.179505257136	215.848408725114	396.040208152674	556.794224320936	153.890945922144	321.500466101746	662.582121746182	149.698582359234	341.223206590341	724.680074340725	32.432841771358	327.206440417472	790.859612261964	1076.051743134816	223.040248728965	899.131495319662	838.832608585093	204.598718747250	819.379232537741	1089.440454478942	785.345139074605	959.165739415818	868.958228635631	774.659447696174	
94	25.328642857143	870.397012809641	961.010935286820	356.595457611501	662.550991977781	1001.518417744274	522.341385271291	809.162832665386	1434.901970535277	334.569241568703	923.161522627871	1368.518670381308	490.148842311381	845.520549636162	1437.021761700561	669.700661286904	816.028190247350	1496.536872454770	485.953453583168	896.711269685322	944.012874333987	630.217627708399	942.286591770337	744.167965077564	601.002591161599	862.696736796674	633.431882257248	657.411926886545	940.600886471996	583.904541790191	576.464056685357	941.970305084266	495.246191645522	579.474704707466	935.004926305474	756.860698922923	376.007506508701	865.557122561520	637.132663523798	304.958243492009	962.317715207850	560.408460554178	358.828025241201	961.033285873558	469.922327250763	351.968109544972	887.216185451801	410.987564228139	347.714668594536	741.313351440769	384.273301745606	300.519024306193	714.392581745558	257.987931081950	358.125170863876	916.435342007213	406.134185582038	584.643317737105	847.510443191776	299.023975960243	640.636835591234	892.758798314202	207.154580222918	576.431249415215	761.498906689151	42.962578663906	538.413262765212	932.119239611675	97.469780253716	578.616550116212	843.226074972935	36.262981825005	615.389843814857	1051.580645173233	44.147105275005	608.820181878323	517.367505503205	223.572837489737	397.045880032339	565.780019513669	161.354743282679	321.748015024451	671.816065567120	155.110578630298	341.119027895924	731.736045841376	33.884253455159	325.570809984995	784.536698581866	1076.567484958378	228.030138853913	880.448052785930	834.203963941680	210.116553836283	832.114746301925	1089.311019746591	789.124750401990	984.437224579232	877.636280421962	776.151636760791	
95	25.342714285714	868.404273744780	961.843143514728	358.129027079682	661.794776717278	1002.467773890497	525.566327975249	807.403003813304	1435.856080264749	337.462128479592	922.969470993887	1368.970911869906	491.648604223122	847.556083006893	1437.337543554218	672.243746992257	816.210333968721	1497.183691276159	488.842062855335	896.630973715320	944.380472883611	631.530366878247	939.640661305126	743.673028670545	602.469743517264	858.840565949091	633.655140730602	659.039978694353	935.903839315050	583.328466403011	578.004263474876	936.135086813831	494.964429096536	580.902470266980	937.625210204013	761.513638134903	377.881146379689	872.342739056096	640.469980740892	305.569120656734	971.235422349593	566.172200189011	359.141192115700	972.250470213091	475.104578995480	351.700701037674	898.671479165777	415.054217604497	347.551243127097	752.428359976524	388.406130154056	301.030256501486	725.892179225767	261.902265619782	358.477353929954	910.417717850157	406.030422578263	585.908310438159	841.001322445882	299.041905442037	641.572120953001	886.165116756479	207.166837431144	577.234174693802	754.367162147109	43.078464878400	538.646475331295	925.181643443760	97.399372564477	578.956029672106	836.134479194830	36.278250686289	615.623231407936	1044.522966538315	43.815019482516	609.002460490930	529.100397054136	227.497054035082	398.414162361635	576.997950200142	165.929347452388	322.201466721194	683.214325544331	159.143949002463	341.071350646351	742.588097579503	35.558343741728	323.735281769097	777.620757107029	1077.398933076153	232.786804222922	861.730650591307	830.815549116198	215.562016984269	845.024790737450	1089.552433961505	792.498845949338	1009.298106067007	887.489799429102	777.074118421022	
